<svg width="72" height="48" viewBox="0 0 72 48" fill="none" xmlns="http://www.w3.org/2000/svg">
<g filter="url(#filter0_b_58_421)">
<g filter="url(#filter1_b_58_421)">
<rect x="8" y="10" width="64" height="24" rx="12" fill="white" fill-opacity="0.1"/>
<rect x="8.5" y="10.5" width="63" height="23" rx="11.5" stroke="white" stroke-opacity="0.5"/>
</g>
<g filter="url(#filter2_d_58_421)">
<rect x="8" y="6" width="32" height="32" rx="16" fill="white" shape-rendering="crispEdges"/>
<path d="M29.5 21V18" stroke="black" stroke-linecap="round" stroke-linejoin="round"/>
<path d="M31 19.5H28" stroke="black" stroke-linecap="round" stroke-linejoin="round"/>
<path d="M26.5 15.5V17.5" stroke="black" stroke-linecap="round" stroke-linejoin="round"/>
<path d="M27.5 16.5H25.5" stroke="black" stroke-linecap="round" stroke-linejoin="round"/>
<path d="M29.5438 23.5375C28.5622 23.8128 27.5249 23.8218 26.5386 23.5637C25.5523 23.3055 24.6525 22.7895 23.9316 22.0685C23.2106 21.3476 22.6946 20.4478 22.4364 19.4615C22.1783 18.4752 22.1873 17.4379 22.4626 16.4563C21.4947 16.7257 20.6144 17.2439 19.9092 17.9594C19.204 18.6749 18.6985 19.5627 18.4432 20.5343C18.1879 21.506 18.1916 22.5276 18.4539 23.4973C18.7163 24.4671 19.2282 25.3512 19.9385 26.0616C20.6489 26.7719 21.533 27.2838 22.5028 27.5462C23.4725 27.8085 24.4941 27.8122 25.4657 27.5569C26.4374 27.3016 27.3252 26.7961 28.0407 26.0909C28.7562 25.3857 29.2744 24.5054 29.5438 23.5375Z" stroke="black" stroke-linecap="round" stroke-linejoin="round"/>
</g>
</g>
<defs>
<filter id="filter0_b_58_421" x="4" y="-2" width="72" height="48" filterUnits="userSpaceOnUse" color-interpolation-filters="sRGB">
<feFlood flood-opacity="0" result="BackgroundImageFix"/>
<feGaussianBlur in="BackgroundImageFix" stdDeviation="2"/>
<feComposite in2="SourceAlpha" operator="in" result="effect1_backgroundBlur_58_421"/>
<feBlend mode="normal" in="SourceGraphic" in2="effect1_backgroundBlur_58_421" result="shape"/>
</filter>
<filter id="filter1_b_58_421" x="0" y="2" width="80" height="40" filterUnits="userSpaceOnUse" color-interpolation-filters="sRGB">
<feFlood flood-opacity="0" result="BackgroundImageFix"/>
<feGaussianBlur in="BackgroundImageFix" stdDeviation="4"/>
<feComposite in2="SourceAlpha" operator="in" result="effect1_backgroundBlur_58_421"/>
<feBlend mode="normal" in="SourceGraphic" in2="effect1_backgroundBlur_58_421" result="shape"/>
</filter>
<filter id="filter2_d_58_421" x="0" y="0" width="48" height="48" filterUnits="userSpaceOnUse" color-interpolation-filters="sRGB">
<feFlood flood-opacity="0" result="BackgroundImageFix"/>
<feColorMatrix in="SourceAlpha" type="matrix" values="0 0 0 0 0 0 0 0 0 0 0 0 0 0 0 0 0 0 127 0" result="hardAlpha"/>
<feOffset dy="2"/>
<feGaussianBlur stdDeviation="4"/>
<feComposite in2="hardAlpha" operator="out"/>
<feColorMatrix type="matrix" values="0 0 0 0 0 0 0 0 0 0 0 0 0 0 0 0 0 0 0.25 0"/>
<feBlend mode="normal" in2="BackgroundImageFix" result="effect1_dropShadow_58_421"/>
<feBlend mode="normal" in="SourceGraphic" in2="effect1_dropShadow_58_421" result="shape"/>
</filter>
</defs>
</svg>
